<svg width="22" height="22" viewBox="0 0 22 22" fill="none" xmlns="http://www.w3.org/2000/svg">
<path d="M21 9.18182C21 15.5455 11 21 11 21C11 21 1 15.5455 1 9.18182C1 7.01187 2.05357 4.93079 3.92893 3.3964C5.8043 1.86201 8.34784 1 11 1C13.6522 1 16.1957 1.86201 18.0711 3.3964C19.9464 4.93079 21 7.01187 21 9.18182Z" stroke="#F2A341" stroke-width="2" stroke-linecap="round" stroke-linejoin="round"/>
<path d="M11.3333 13.4545C13.1743 13.4545 14.6667 12.2335 14.6667 10.7273C14.6667 9.22104 13.1743 8 11.3333 8C9.49238 8 8 9.22104 8 10.7273C8 12.2335 9.49238 13.4545 11.3333 13.4545Z" stroke="#F2A341" stroke-width="2" stroke-linecap="round" stroke-linejoin="round"/>
</svg>
