<svg width="122" height="22" viewBox="0 0 122 22" fill="none" xmlns="http://www.w3.org/2000/svg">
<path d="M2.82805 15.624V12.46H7.05606C8.40006 12.46 9.40806 12.1894 10.0801 11.648C10.7521 11.088 11.0881 10.1734 11.0881 8.90403C11.0881 7.78403 10.7707 6.9347 10.1361 6.35603C9.52006 5.7587 8.55872 5.46003 7.25206 5.46003H2.82805V2.35203H7.36406C8.55872 2.35203 9.63206 2.49203 10.5841 2.77203C11.5547 3.05203 12.3761 3.47203 13.0481 4.03203C13.7387 4.57336 14.2614 5.26403 14.6161 6.10403C14.9707 6.92536 15.1481 7.89603 15.1481 9.01603C15.1481 10.4534 14.8214 11.6667 14.1681 12.656C13.5147 13.6267 12.5441 14.364 11.2561 14.868C9.98672 15.372 8.40005 15.624 6.49605 15.624H2.82805ZM5.48661e-05 20.832V2.35203H4.03205V20.832H5.48661e-05ZM17.8509 20.832V6.13203H21.8829V20.832H17.8509ZM19.8949 3.92003C19.1109 3.92003 18.5043 3.76136 18.0749 3.44403C17.6643 3.10803 17.4589 2.6227 17.4589 1.98803C17.4589 1.3347 17.6643 0.840031 18.0749 0.504031C18.5043 0.168031 19.1109 3.0756e-05 19.8949 3.0756e-05C20.6976 3.0756e-05 21.3043 0.168031 21.7149 0.504031C22.1443 0.840031 22.3589 1.3347 22.3589 1.98803C22.3589 2.60403 22.1443 3.08003 21.7149 3.41603C21.3043 3.75203 20.6976 3.92003 19.8949 3.92003ZM24.7206 20.832V17.444L32.3086 9.74403V9.35203H24.8606V6.13203H37.4326V9.46403L29.7886 17.192V17.584H37.4886V20.832H24.7206ZM39.5682 20.832V17.444L47.1562 9.74403V9.35203H39.7082V6.13203H52.2802V9.46403L44.6362 17.192V17.584H52.3362V20.832H39.5682ZM58.5371 21.224C57.7158 21.224 56.9878 21.0654 56.3531 20.748C55.7185 20.412 55.2238 19.936 54.8691 19.32C54.5145 18.704 54.3371 17.9387 54.3371 17.024C54.3371 16.2214 54.4865 15.5494 54.7851 15.008C55.1025 14.4667 55.5598 14.028 56.1571 13.692C56.7545 13.356 57.4918 13.076 58.3691 12.852C59.2465 12.628 60.2451 12.432 61.3651 12.264C61.9625 12.1707 62.4478 12.0867 62.8211 12.012C63.2131 11.9187 63.5025 11.7787 63.6891 11.592C63.8758 11.3867 63.9691 11.0974 63.9691 10.724C63.9691 10.2014 63.7825 9.75336 63.4091 9.38003C63.0358 9.0067 62.4478 8.82003 61.6451 8.82003C61.1038 8.82003 60.5998 8.91336 60.1331 9.10003C59.6851 9.2867 59.2931 9.5667 58.9571 9.94003C58.6398 10.3134 58.4065 10.7894 58.2571 11.368L54.7011 10.276C54.9251 9.5107 55.2425 8.84803 55.6531 8.28803C56.0825 7.72803 56.5958 7.26136 57.1931 6.88803C57.7905 6.49603 58.4718 6.2067 59.2371 6.02003C60.0025 5.83336 60.8331 5.74003 61.7291 5.74003C63.1665 5.74003 64.3331 5.97336 65.2291 6.44003C66.1438 6.88803 66.8251 7.59736 67.2731 8.56803C67.7211 9.52003 67.9451 10.752 67.9451 12.264V14.784C67.9451 15.4374 67.9545 16.1 67.9731 16.772C68.0105 17.444 68.0478 18.1254 68.0851 18.816C68.1411 19.488 68.1971 20.16 68.2531 20.832H64.6971C64.6225 20.3654 64.5478 19.8334 64.4731 19.236C64.4171 18.62 64.3705 18.004 64.3331 17.388H63.8291C63.5678 18.0974 63.1945 18.7414 62.7091 19.32C62.2238 19.8987 61.6265 20.3654 60.9171 20.72C60.2265 21.056 59.4331 21.224 58.5371 21.224ZM60.2451 18.312C60.5998 18.312 60.9545 18.2467 61.3091 18.116C61.6825 17.9854 62.0371 17.808 62.3731 17.584C62.7278 17.3414 63.0451 17.0427 63.3251 16.688C63.6238 16.3334 63.8665 15.932 64.0531 15.484L63.9971 13.132L64.6411 13.272C64.3051 13.5147 63.9131 13.7107 63.4651 13.86C63.0171 13.9907 62.5505 14.0934 62.0651 14.168C61.5985 14.2427 61.1318 14.3267 60.6651 14.42C60.1985 14.5134 59.7785 14.6347 59.4051 14.784C59.0505 14.9334 58.7611 15.1387 58.5371 15.4C58.3318 15.6427 58.2291 15.988 58.2291 16.436C58.2291 17.0147 58.4158 17.472 58.7891 17.808C59.1625 18.144 59.6478 18.312 60.2451 18.312ZM74.8613 21.224C74.04 21.224 73.312 21.0654 72.6773 20.748C72.0427 20.412 71.548 19.936 71.1933 19.32C70.8387 18.704 70.6613 17.9387 70.6613 17.024C70.6613 16.2214 70.8107 15.5494 71.1093 15.008C71.4267 14.4667 71.884 14.028 72.4813 13.692C73.0787 13.356 73.816 13.076 74.6933 12.852C75.5707 12.628 76.5693 12.432 77.6893 12.264C78.2867 12.1707 78.772 12.0867 79.1453 12.012C79.5373 11.9187 79.8267 11.7787 80.0133 11.592C80.2 11.3867 80.2933 11.0974 80.2933 10.724C80.2933 10.2014 80.1067 9.75336 79.7333 9.38003C79.36 9.0067 78.772 8.82003 77.9693 8.82003C77.428 8.82003 76.924 8.91336 76.4573 9.10003C76.0093 9.2867 75.6173 9.5667 75.2813 9.94003C74.964 10.3134 74.7307 10.7894 74.5813 11.368L71.0253 10.276C71.2493 9.5107 71.5667 8.84803 71.9773 8.28803C72.4067 7.72803 72.92 7.26136 73.5173 6.88803C74.1147 6.49603 74.796 6.2067 75.5613 6.02003C76.3267 5.83336 77.1573 5.74003 78.0533 5.74003C79.4907 5.74003 80.6573 5.97336 81.5533 6.44003C82.468 6.88803 83.1493 7.59736 83.5973 8.56803C84.0453 9.52003 84.2693 10.752 84.2693 12.264V14.784C84.2693 15.4374 84.2787 16.1 84.2973 16.772C84.3347 17.444 84.372 18.1254 84.4093 18.816C84.4653 19.488 84.5213 20.16 84.5773 20.832H81.0213C80.9467 20.3654 80.872 19.8334 80.7973 19.236C80.7413 18.62 80.6947 18.004 80.6573 17.388H80.1533C79.892 18.0974 79.5187 18.7414 79.0333 19.32C78.548 19.8987 77.9507 20.3654 77.2413 20.72C76.5507 21.056 75.7573 21.224 74.8613 21.224ZM76.5693 18.312C76.924 18.312 77.2787 18.2467 77.6333 18.116C78.0067 17.9854 78.3613 17.808 78.6973 17.584C79.052 17.3414 79.3693 17.0427 79.6493 16.688C79.948 16.3334 80.1907 15.932 80.3773 15.484L80.3213 13.132L80.9653 13.272C80.6293 13.5147 80.2373 13.7107 79.7893 13.86C79.3413 13.9907 78.8747 14.0934 78.3893 14.168C77.9227 14.2427 77.456 14.3267 76.9893 14.42C76.5227 14.5134 76.1027 14.6347 75.7293 14.784C75.3747 14.9334 75.0853 15.1387 74.8613 15.4C74.656 15.6427 74.5533 15.988 74.5533 16.436C74.5533 17.0147 74.74 17.472 75.1133 17.808C75.4867 18.144 75.972 18.312 76.5693 18.312ZM91.1856 21.224C90.3642 21.224 89.6362 21.0654 89.0016 20.748C88.3669 20.412 87.8722 19.936 87.5176 19.32C87.1629 18.704 86.9856 17.9387 86.9856 17.024C86.9856 16.2214 87.1349 15.5494 87.4336 15.008C87.7509 14.4667 88.2082 14.028 88.8056 13.692C89.4029 13.356 90.1402 13.076 91.0176 12.852C91.8949 12.628 92.8936 12.432 94.0136 12.264C94.6109 12.1707 95.0962 12.0867 95.4696 12.012C95.8616 11.9187 96.1509 11.7787 96.3376 11.592C96.5242 11.3867 96.6176 11.0974 96.6176 10.724C96.6176 10.2014 96.4309 9.75336 96.0576 9.38003C95.6842 9.0067 95.0962 8.82003 94.2936 8.82003C93.7522 8.82003 93.2482 8.91336 92.7816 9.10003C92.3336 9.2867 91.9416 9.5667 91.6056 9.94003C91.2882 10.3134 91.0549 10.7894 90.9056 11.368L87.3496 10.276C87.5736 9.5107 87.8909 8.84803 88.3016 8.28803C88.7309 7.72803 89.2442 7.26136 89.8416 6.88803C90.4389 6.49603 91.1202 6.2067 91.8856 6.02003C92.6509 5.83336 93.4816 5.74003 94.3776 5.74003C95.8149 5.74003 96.9816 5.97336 97.8776 6.44003C98.7922 6.88803 99.4736 7.59736 99.9216 8.56803C100.37 9.52003 100.594 10.752 100.594 12.264V14.784C100.594 15.4374 100.603 16.1 100.622 16.772C100.659 17.444 100.696 18.1254 100.734 18.816C100.79 19.488 100.846 20.16 100.902 20.832H97.3456C97.2709 20.3654 97.1962 19.8334 97.1216 19.236C97.0656 18.62 97.0189 18.004 96.9816 17.388H96.4776C96.2162 18.0974 95.8429 18.7414 95.3576 19.32C94.8722 19.8987 94.2749 20.3654 93.5656 20.72C92.8749 21.056 92.0816 21.224 91.1856 21.224ZM92.8936 18.312C93.2482 18.312 93.6029 18.2467 93.9576 18.116C94.3309 17.9854 94.6856 17.808 95.0216 17.584C95.3762 17.3414 95.6936 17.0427 95.9736 16.688C96.2722 16.3334 96.5149 15.932 96.7016 15.484L96.6456 13.132L97.2896 13.272C96.9536 13.5147 96.5616 13.7107 96.1136 13.86C95.6656 13.9907 95.1989 14.0934 94.7136 14.168C94.2469 14.2427 93.7802 14.3267 93.3136 14.42C92.8469 14.5134 92.4269 14.6347 92.0536 14.784C91.6989 14.9334 91.4096 15.1387 91.1856 15.4C90.9802 15.6427 90.8776 15.988 90.8776 16.436C90.8776 17.0147 91.0642 17.472 91.4376 17.808C91.8109 18.144 92.2962 18.312 92.8936 18.312ZM114.758 21.224C113.769 21.224 112.873 21.1307 112.07 20.944C111.268 20.7574 110.577 20.4867 109.998 20.132C109.42 19.7774 108.953 19.3574 108.598 18.872C108.244 18.368 108.01 17.808 107.898 17.192L110.978 15.932C111.053 16.3427 111.258 16.7254 111.594 17.08C111.93 17.4347 112.378 17.724 112.938 17.948C113.517 18.1534 114.208 18.256 115.01 18.256C115.869 18.256 116.532 18.1347 116.998 17.892C117.465 17.6307 117.698 17.2667 117.698 16.8C117.698 16.4454 117.568 16.1654 117.306 15.96C117.045 15.7547 116.662 15.5774 116.158 15.428C115.654 15.2787 115.048 15.1387 114.338 15.008C113.648 14.84 112.938 14.6627 112.21 14.476C111.501 14.2894 110.838 14.028 110.222 13.692C109.625 13.356 109.13 12.9174 108.738 12.376C108.365 11.816 108.178 11.1067 108.178 10.248C108.178 9.35203 108.421 8.56803 108.906 7.89603C109.392 7.22403 110.101 6.70136 111.034 6.32803C111.968 5.93603 113.106 5.74003 114.45 5.74003C115.664 5.74003 116.728 5.90803 117.642 6.24403C118.557 6.56136 119.304 7.02803 119.882 7.64403C120.48 8.24136 120.881 8.96003 121.086 9.80003L117.81 10.892C117.736 10.444 117.549 10.052 117.25 9.71603C116.97 9.38003 116.588 9.12803 116.102 8.96003C115.636 8.79203 115.085 8.70803 114.45 8.70803C113.648 8.70803 113.022 8.8387 112.574 9.10003C112.145 9.36136 111.93 9.7067 111.93 10.136C111.93 10.4907 112.07 10.78 112.35 11.004C112.649 11.228 113.06 11.4147 113.582 11.564C114.105 11.6947 114.721 11.8347 115.43 11.984C116.177 12.1334 116.905 12.3107 117.614 12.516C118.324 12.7027 118.958 12.9547 119.518 13.272C120.097 13.5894 120.554 14.0094 120.89 14.532C121.226 15.0547 121.394 15.7267 121.394 16.548C121.394 17.5187 121.133 18.3587 120.61 19.068C120.088 19.7587 119.332 20.2907 118.342 20.664C117.353 21.0374 116.158 21.224 114.758 21.224Z" fill="black"/>
<path d="M102.366 7.95203C102.702 7.09336 102.935 6.2907 103.066 5.54403C103.215 4.79736 103.299 4.0507 103.318 3.30403C103.355 2.5387 103.374 1.70803 103.374 0.81203H107.07C107.07 2.08136 106.995 3.17336 106.846 4.08803C106.696 4.98403 106.491 5.74936 106.23 6.38403C105.987 7.00003 105.735 7.5227 105.474 7.95203H102.366Z" fill="#1A7902"/>
</svg>
