<svg width="122" height="22" viewBox="0 0 122 22" fill="none" xmlns="http://www.w3.org/2000/svg">
<path d="M2.82799 15.624V12.46H7.05599C8.39999 12.46 9.40799 12.1893 10.08 11.648C10.752 11.088 11.088 10.1733 11.088 8.904C11.088 7.784 10.7707 6.93467 10.136 6.356C9.51999 5.75867 8.55866 5.46 7.25199 5.46H2.82799V2.352H7.36399C8.55866 2.352 9.63199 2.492 10.584 2.772C11.5547 3.052 12.376 3.472 13.048 4.032C13.7387 4.57333 14.2613 5.264 14.616 6.104C14.9707 6.92533 15.148 7.896 15.148 9.016C15.148 10.4533 14.8213 11.6667 14.168 12.656C13.5147 13.6267 12.544 14.364 11.256 14.868C9.98666 15.372 8.39999 15.624 6.49599 15.624H2.82799ZM-6.16908e-06 20.832V2.352H4.03199V20.832H-6.16908e-06ZM17.8509 20.832V6.132H21.8829V20.832H17.8509ZM19.8949 3.92C19.1109 3.92 18.5042 3.76133 18.0749 3.444C17.6642 3.108 17.4589 2.62267 17.4589 1.988C17.4589 1.33467 17.6642 0.840001 18.0749 0.504C18.5042 0.168 19.1109 2.38419e-07 19.8949 2.38419e-07C20.6975 2.38419e-07 21.3042 0.168 21.7149 0.504C22.1442 0.840001 22.3589 1.33467 22.3589 1.988C22.3589 2.604 22.1442 3.08 21.7149 3.416C21.3042 3.752 20.6975 3.92 19.8949 3.92ZM24.7205 20.832V17.444L32.3085 9.744V9.352H24.8605V6.132H37.4325V9.464L29.7885 17.192V17.584H37.4885V20.832H24.7205ZM39.5681 20.832V17.444L47.1562 9.744V9.352H39.7081V6.132H52.2802V9.464L44.6362 17.192V17.584H52.3362V20.832H39.5681ZM58.5371 21.224C57.7157 21.224 56.9877 21.0653 56.3531 20.748C55.7184 20.412 55.2237 19.936 54.8691 19.32C54.5144 18.704 54.3371 17.9387 54.3371 17.024C54.3371 16.2213 54.4864 15.5493 54.7851 15.008C55.1024 14.4667 55.5597 14.028 56.1571 13.692C56.7544 13.356 57.4917 13.076 58.3691 12.852C59.2464 12.628 60.2451 12.432 61.3651 12.264C61.9624 12.1707 62.4477 12.0867 62.8211 12.012C63.2131 11.9187 63.5024 11.7787 63.6891 11.592C63.8757 11.3867 63.9691 11.0973 63.9691 10.724C63.9691 10.2013 63.7824 9.75333 63.4091 9.38C63.0357 9.00667 62.4477 8.82 61.6451 8.82C61.1037 8.82 60.5997 8.91333 60.1331 9.1C59.6851 9.28667 59.2931 9.56667 58.9571 9.94C58.6397 10.3133 58.4064 10.7893 58.2571 11.368L54.7011 10.276C54.9251 9.51067 55.2424 8.848 55.6531 8.288C56.0824 7.728 56.5957 7.26133 57.1931 6.888C57.7904 6.496 58.4717 6.20667 59.2371 6.02C60.0024 5.83333 60.8331 5.74 61.7291 5.74C63.1664 5.74 64.3331 5.97333 65.2291 6.44C66.1437 6.888 66.8251 7.59733 67.2731 8.568C67.7211 9.52 67.9451 10.752 67.9451 12.264V14.784C67.9451 15.4373 67.9544 16.1 67.9731 16.772C68.0104 17.444 68.0477 18.1253 68.0851 18.816C68.1411 19.488 68.1971 20.16 68.2531 20.832H64.6971C64.6224 20.3653 64.5477 19.8333 64.4731 19.236C64.4171 18.62 64.3704 18.004 64.3331 17.388H63.8291C63.5677 18.0973 63.1944 18.7413 62.7091 19.32C62.2237 19.8987 61.6264 20.3653 60.9171 20.72C60.2264 21.056 59.4331 21.224 58.5371 21.224ZM60.2451 18.312C60.5997 18.312 60.9544 18.2467 61.3091 18.116C61.6824 17.9853 62.0371 17.808 62.3731 17.584C62.7277 17.3413 63.0451 17.0427 63.3251 16.688C63.6237 16.3333 63.8664 15.932 64.0531 15.484L63.9971 13.132L64.6411 13.272C64.3051 13.5147 63.9131 13.7107 63.4651 13.86C63.0171 13.9907 62.5504 14.0933 62.0651 14.168C61.5984 14.2427 61.1317 14.3267 60.6651 14.42C60.1984 14.5133 59.7784 14.6347 59.4051 14.784C59.0504 14.9333 58.7611 15.1387 58.5371 15.4C58.3317 15.6427 58.2291 15.988 58.2291 16.436C58.2291 17.0147 58.4157 17.472 58.7891 17.808C59.1624 18.144 59.6477 18.312 60.2451 18.312ZM74.8613 21.224C74.0399 21.224 73.3119 21.0653 72.6773 20.748C72.0426 20.412 71.5479 19.936 71.1933 19.32C70.8386 18.704 70.6613 17.9387 70.6613 17.024C70.6613 16.2213 70.8106 15.5493 71.1093 15.008C71.4266 14.4667 71.8839 14.028 72.4813 13.692C73.0786 13.356 73.8159 13.076 74.6933 12.852C75.5706 12.628 76.5693 12.432 77.6893 12.264C78.2866 12.1707 78.7719 12.0867 79.1453 12.012C79.5373 11.9187 79.8266 11.7787 80.0133 11.592C80.1999 11.3867 80.2933 11.0973 80.2933 10.724C80.2933 10.2013 80.1066 9.75333 79.7333 9.38C79.3599 9.00667 78.7719 8.82 77.9693 8.82C77.4279 8.82 76.9239 8.91333 76.4573 9.1C76.0093 9.28667 75.6173 9.56667 75.2813 9.94C74.9639 10.3133 74.7306 10.7893 74.5813 11.368L71.0253 10.276C71.2493 9.51067 71.5666 8.848 71.9773 8.288C72.4066 7.728 72.9199 7.26133 73.5173 6.888C74.1146 6.496 74.7959 6.20667 75.5613 6.02C76.3266 5.83333 77.1573 5.74 78.0533 5.74C79.4906 5.74 80.6573 5.97333 81.5533 6.44C82.4679 6.888 83.1493 7.59733 83.5973 8.568C84.0453 9.52 84.2693 10.752 84.2693 12.264V14.784C84.2693 15.4373 84.2786 16.1 84.2973 16.772C84.3346 17.444 84.3719 18.1253 84.4093 18.816C84.4653 19.488 84.5213 20.16 84.5773 20.832H81.0213C80.9466 20.3653 80.8719 19.8333 80.7973 19.236C80.7413 18.62 80.6946 18.004 80.6573 17.388H80.1533C79.8919 18.0973 79.5186 18.7413 79.0333 19.32C78.5479 19.8987 77.9506 20.3653 77.2413 20.72C76.5506 21.056 75.7573 21.224 74.8613 21.224ZM76.5693 18.312C76.9239 18.312 77.2786 18.2467 77.6333 18.116C78.0066 17.9853 78.3613 17.808 78.6973 17.584C79.0519 17.3413 79.3693 17.0427 79.6493 16.688C79.9479 16.3333 80.1906 15.932 80.3773 15.484L80.3213 13.132L80.9653 13.272C80.6293 13.5147 80.2373 13.7107 79.7893 13.86C79.3413 13.9907 78.8746 14.0933 78.3893 14.168C77.9226 14.2427 77.4559 14.3267 76.9893 14.42C76.5226 14.5133 76.1026 14.6347 75.7293 14.784C75.3746 14.9333 75.0853 15.1387 74.8613 15.4C74.6559 15.6427 74.5533 15.988 74.5533 16.436C74.5533 17.0147 74.7399 17.472 75.1133 17.808C75.4866 18.144 75.9719 18.312 76.5693 18.312ZM91.1855 21.224C90.3642 21.224 89.6362 21.0653 89.0015 20.748C88.3668 20.412 87.8722 19.936 87.5175 19.32C87.1628 18.704 86.9855 17.9387 86.9855 17.024C86.9855 16.2213 87.1348 15.5493 87.4335 15.008C87.7508 14.4667 88.2082 14.028 88.8055 13.692C89.4028 13.356 90.1402 13.076 91.0175 12.852C91.8948 12.628 92.8935 12.432 94.0135 12.264C94.6108 12.1707 95.0962 12.0867 95.4695 12.012C95.8615 11.9187 96.1508 11.7787 96.3375 11.592C96.5242 11.3867 96.6175 11.0973 96.6175 10.724C96.6175 10.2013 96.4308 9.75333 96.0575 9.38C95.6842 9.00667 95.0962 8.82 94.2935 8.82C93.7522 8.82 93.2482 8.91333 92.7815 9.1C92.3335 9.28667 91.9415 9.56667 91.6055 9.94C91.2882 10.3133 91.0548 10.7893 90.9055 11.368L87.3495 10.276C87.5735 9.51067 87.8908 8.848 88.3015 8.288C88.7308 7.728 89.2442 7.26133 89.8415 6.888C90.4388 6.496 91.1202 6.20667 91.8855 6.02C92.6508 5.83333 93.4815 5.74 94.3775 5.74C95.8148 5.74 96.9815 5.97333 97.8775 6.44C98.7922 6.888 99.4735 7.59733 99.9215 8.568C100.369 9.52 100.593 10.752 100.593 12.264V14.784C100.593 15.4373 100.603 16.1 100.621 16.772C100.659 17.444 100.696 18.1253 100.733 18.816C100.789 19.488 100.845 20.16 100.901 20.832H97.3455C97.2708 20.3653 97.1962 19.8333 97.1215 19.236C97.0655 18.62 97.0188 18.004 96.9815 17.388H96.4775C96.2162 18.0973 95.8428 18.7413 95.3575 19.32C94.8722 19.8987 94.2748 20.3653 93.5655 20.72C92.8748 21.056 92.0815 21.224 91.1855 21.224ZM92.8935 18.312C93.2482 18.312 93.6028 18.2467 93.9575 18.116C94.3308 17.9853 94.6855 17.808 95.0215 17.584C95.3762 17.3413 95.6935 17.0427 95.9735 16.688C96.2722 16.3333 96.5148 15.932 96.7015 15.484L96.6455 13.132L97.2895 13.272C96.9535 13.5147 96.5615 13.7107 96.1135 13.86C95.6655 13.9907 95.1988 14.0933 94.7135 14.168C94.2468 14.2427 93.7802 14.3267 93.3135 14.42C92.8468 14.5133 92.4268 14.6347 92.0535 14.784C91.6988 14.9333 91.4095 15.1387 91.1855 15.4C90.9802 15.6427 90.8775 15.988 90.8775 16.436C90.8775 17.0147 91.0642 17.472 91.4375 17.808C91.8108 18.144 92.2962 18.312 92.8935 18.312ZM114.758 21.224C113.769 21.224 112.873 21.1307 112.07 20.944C111.268 20.7573 110.577 20.4867 109.998 20.132C109.42 19.7773 108.953 19.3573 108.598 18.872C108.244 18.368 108.01 17.808 107.898 17.192L110.978 15.932C111.053 16.3427 111.258 16.7253 111.594 17.08C111.93 17.4347 112.378 17.724 112.938 17.948C113.517 18.1533 114.208 18.256 115.01 18.256C115.869 18.256 116.532 18.1347 116.998 17.892C117.465 17.6307 117.698 17.2667 117.698 16.8C117.698 16.4453 117.568 16.1653 117.306 15.96C117.045 15.7547 116.662 15.5773 116.158 15.428C115.654 15.2787 115.048 15.1387 114.338 15.008C113.648 14.84 112.938 14.6627 112.21 14.476C111.501 14.2893 110.838 14.028 110.222 13.692C109.625 13.356 109.13 12.9173 108.738 12.376C108.365 11.816 108.178 11.1067 108.178 10.248C108.178 9.352 108.421 8.568 108.906 7.896C109.392 7.224 110.101 6.70133 111.034 6.328C111.968 5.936 113.106 5.74 114.45 5.74C115.664 5.74 116.728 5.908 117.642 6.244C118.557 6.56133 119.304 7.028 119.882 7.644C120.48 8.24133 120.881 8.96 121.086 9.8L117.81 10.892C117.736 10.444 117.549 10.052 117.25 9.716C116.97 9.38 116.588 9.128 116.102 8.96C115.636 8.792 115.085 8.708 114.45 8.708C113.648 8.708 113.022 8.83867 112.574 9.1C112.145 9.36133 111.93 9.70667 111.93 10.136C111.93 10.4907 112.07 10.78 112.35 11.004C112.649 11.228 113.06 11.4147 113.582 11.564C114.105 11.6947 114.721 11.8347 115.43 11.984C116.177 12.1333 116.905 12.3107 117.614 12.516C118.324 12.7027 118.958 12.9547 119.518 13.272C120.097 13.5893 120.554 14.0093 120.89 14.532C121.226 15.0547 121.394 15.7267 121.394 16.548C121.394 17.5187 121.133 18.3587 120.61 19.068C120.088 19.7587 119.332 20.2907 118.342 20.664C117.353 21.0373 116.158 21.224 114.758 21.224Z" fill="#FF5858"/>
<path d="M102.366 7.952C102.702 7.09333 102.935 6.29067 103.066 5.544C103.215 4.79733 103.299 4.05067 103.318 3.304C103.355 2.53867 103.374 1.708 103.374 0.812H107.07C107.07 2.08133 106.995 3.17333 106.846 4.088C106.696 4.984 106.491 5.74933 106.23 6.384C105.987 7 105.735 7.52267 105.474 7.952H102.366Z" fill="#1A7902"/>
</svg>
